<svg xmlns="http://www.w3.org/2000/svg" xmlns:xlink="http://www.w3.org/1999/xlink" width="135" height="69" viewBox="0 0 135 69">
  <defs>
    <clipPath id="clip-Logo_Rhein_Hotel">
      <rect width="135" height="69"/>
    </clipPath>
  </defs>
  <g id="Logo_Rhein_Hotel" data-name="Logo Rhein Hotel" clip-path="url(#clip-Logo_Rhein_Hotel)">
    <g id="Logo_Rhein_Hotel-2" data-name="Logo Rhein Hotel" transform="translate(15.377 -1.32)">
      <path id="Path_1" data-name="Path 1" d="M54.84,25.628c.016-8.315.032-14.309.024-14.551a1.413,1.413,0,0,1,.024-.251.611.611,0,0,1,.372-.493,1.037,1.037,0,0,1,.493-.105h.534c9.666-.065,15.11-.113,15.336-.138h.332a.758.758,0,0,1,.324.073.862.862,0,0,1,.243.186.964.964,0,0,1,.194.348,1.221,1.221,0,0,1,.065.283.592.592,0,0,1,.008.2c0,.186.081,5.152.21,12.173a2.807,2.807,0,0,0,.421,1.157,2.911,2.911,0,0,0,.987.93,2.364,2.364,0,0,0,1.407.324,2.33,2.33,0,0,0,1.108-.421,3.107,3.107,0,0,0,.922-1.084,3.209,3.209,0,0,0,.356-1.488c-.049-6.479-.065-11.227-.04-11.728a.764.764,0,0,1,.21-.55.721.721,0,0,1,.453-.17q8.081-.061,16.161-.113h.267s.089.024.146.032a.973.973,0,0,1,.218.065.624.624,0,0,1,.243.154.4.4,0,0,1,.089.251l.1,17.172a1.489,1.489,0,0,1-.453,1.108c-.332.275-.72.267-1.367.259a6.492,6.492,0,0,1-1.626-.291c-.421-.129-.712-.251-.817-.291a10.58,10.58,0,0,0-4.853-.259,16.232,16.232,0,0,0-2.022.518c-1.229.372-1.569.566-2.313.817A10.7,10.7,0,0,1,76.5,30c-.7-.2-.477-.235-1.3-.485a14.668,14.668,0,0,0-7.167-.1c-.291.073-.93.251-1.893.453-.833.178-1.561.315-1.86.356a12.05,12.05,0,0,1-6.479-.655,15.213,15.213,0,0,0-1.416-.7c-.4-.178-.736-.307-.914-.38a1.115,1.115,0,0,1-.38-.218.611.611,0,0,1-.17-.2.5.5,0,0,1-.057-.3L54.84,25.62Z" transform="translate(-10.484)" fill="#fff"/>
      <path id="Path_2" data-name="Path 2" d="M54.921,68.645,54.84,53.568a.946.946,0,0,1,.243-.615.851.851,0,0,1,.453-.243c.7-.178,2.289.5,3.462.752a9.8,9.8,0,0,0,3.292.024c.728-.081,1.448-.218,1.763-.283.445-.1.728-.178,1.593-.372,0,0,.534-.121.938-.2a22.6,22.6,0,0,1,5.848-.243,10.826,10.826,0,0,1,1.885.283c.615.154.712.251,1.31.413a10.4,10.4,0,0,0,2.208.324,14.54,14.54,0,0,0,2.459-.081,29.139,29.139,0,0,0,2.985-.493c1.213-.243,1.262-.283,1.925-.413a17.9,17.9,0,0,1,6.058-.162c1.06.2.874.307,1.925.493,1.375.235,2.669.218,2.823.736a2.345,2.345,0,0,1,.04.493c0,.243.008.372,0,.631-.024.526,0,13.654-.1,14.39a.5.5,0,0,1-.146.324.556.556,0,0,1-.243.105c-.356.057-13.548.1-16.776.105a.817.817,0,0,1-.566-.21.771.771,0,0,1-.226-.55c.008-3.794.016-5.419.016-6.123V57.685a2.162,2.162,0,0,0-.7-1.213,2.689,2.689,0,0,0-1.229-.574,3.337,3.337,0,0,0-.9-.121,2.628,2.628,0,0,0-1.31.283,2.274,2.274,0,0,0-1.068,1.149,1.91,1.91,0,0,0-.121.453c.032,6.188.032,10.725,0,11.227a.633.633,0,0,1-.138.4,1,1,0,0,1-.785.275c-.607,0-7.053.016-15.91.016a1.107,1.107,0,0,1-.7-.38,1.065,1.065,0,0,1-.235-.55Z" transform="translate(-10.484 -8.026)" fill="#fff"/>
      <path id="Path_3" data-name="Path 3" d="M104.179,31.528a.691.691,0,0,0-.34-.307,21.336,21.336,0,0,0-6.01-1.561c-1.076-.105-1.618-.129-1.836-.129a22.742,22.742,0,0,0-2.71.081c-1.3.105-2.289.267-2.58.315-.089.016-.105.016-1.731.348-1.132.226-1.7.34-2.022.4a19.3,19.3,0,0,1-1.966.291,12.747,12.747,0,0,1-2.475-.057c-.17-.024-.526-.073-1.246-.186-.785-.121-.93-.146-1.2-.186a15.809,15.809,0,0,0-2.394-.21,11.793,11.793,0,0,0-2.176.21,23.716,23.716,0,0,0-2.637.679,21.324,21.324,0,0,1-2.661.76,8.841,8.841,0,0,1-2.038.121,9.407,9.407,0,0,1-1.294-.178c-.4-.089-.857-.226-1.124-.3-.138-.04-.235-.073-.372-.113-.2-.065-.291-.1-.5-.162,0,0-.121-.04-.275-.081-.607-.178-1.165-.283-1.165-.283a12.645,12.645,0,0,0-1.755-.21,12.446,12.446,0,0,0-2.014.024,16.844,16.844,0,0,0-2.006.324c-.849.17-.841.21-1.674.372-.752.146-1.375.235-1.763.283-.647.081-1.124.121-1.537.154-.671.057-.914.057-1.019.057a5.7,5.7,0,0,1-1.165-.089c-.291-.057-.558-.129-1.027-.251-.129-.032-.251-.073-.429-.121-.4-.113-.679-.194-.768-.226-.469-.138-.963-.259-1.949-.518,0,0-.542-.138-.971-.235l-.51-.113-.089-.016c-.2-.04-1.1-.226-1.569-.291a8.548,8.548,0,0,0-1.917.024,15.861,15.861,0,0,0-1.755.243c-.4.073-.768.154-1.513.315-1.076.235-1.14.275-1.674.372-.623.121-1.108.178-1.416.218a15.953,15.953,0,0,1-1.7.154,8.855,8.855,0,0,1-1.488-.049,8.4,8.4,0,0,1-1.48-.307c-.445-.129-.429-.17-1.165-.421-.105-.04-.6-.2-1.254-.388-.388-.113-.849-.243-1.456-.372a15.424,15.424,0,0,0-1.828-.3,11.775,11.775,0,0,0-1.723-.073,9.42,9.42,0,0,0-2.119.307c-.429.121-.5.178-1.173.356a10.05,10.05,0,0,1-1.27.291,9.048,9.048,0,0,1-1.2.1V29.134c.024.105,1.027-.04,1.132-.049a10.969,10.969,0,0,0,1.173-.218c.469-.113.607-.178,1.246-.364.283-.081.865-.251,1.318-.356a9.048,9.048,0,0,1,2.111-.218,7.764,7.764,0,0,1,2.944.4c.146.057.485.194,1.019.4.461.17.76.275,1.027.356a6.129,6.129,0,0,0,1.755.186,8.3,8.3,0,0,0,2.823-.3,7.605,7.605,0,0,0,2.241-1.238,9.688,9.688,0,0,0,1.068-.922s.315-.324.566-.639A6.687,6.687,0,0,0,38.6,23.909a15.962,15.962,0,0,0,.6-4.651,11.365,11.365,0,0,0-1.367-5.921,5.686,5.686,0,0,0-2.475-2.451,4.976,4.976,0,0,0-2.006-.453c-14.284-.024-32.4-.049-32.759,0a.85.85,0,0,0-.186.057.843.843,0,0,0-.38.574Q-.055,35.427.03,59.8v.72a.918.918,0,0,0,.307.542.915.915,0,0,0,.582.154c.493,0,1.068.008,1.731.016,9.634.081,11.672.105,12.044.113l1.343.024h.356a.812.812,0,0,0,.623-.243.116.116,0,0,1,.016-.024,1.152,1.152,0,0,0,.162-.768c-.04-.38-.049-5.492-.057-12.594h.542a5.823,5.823,0,0,1,.647.073,5.6,5.6,0,0,1,3.68,2.58,6.8,6.8,0,0,1,.243,2.8c-.057,1.472-.105,3.608-.057,6.277-.008.4,0,.744,0,1,.016.485.032.631.154.752a.8.8,0,0,0,.647.154l16.525.1a.72.72,0,0,0,.5-.049.784.784,0,0,0,.3-.9V52.915a7.753,7.753,0,0,0-.2-2.653,7.013,7.013,0,0,0-2.855-4.206,5.541,5.541,0,0,0-2.354-.9,19.23,19.23,0,0,0-2.1.049,9.667,9.667,0,0,1-3.308-.4c-.162-.057-.259-.105-.744-.275-.55-.194-1.108-.372-1.658-.574a14.843,14.843,0,0,0-5.258-.849,13.463,13.463,0,0,0-3.3.5c-.332.089-.663.2-.663.2-.186.065-.348.121-.469.17l-.3.113c0-.542,0-1.084-.008-1.626.413-.1,1.019-.243,1.747-.4a23.977,23.977,0,0,1,3.26-.582,12.8,12.8,0,0,1,2.071-.016,16.162,16.162,0,0,1,2.888.6c1.707.461,1.909.623,3.349.963a11.194,11.194,0,0,0,2.224.4,11.131,11.131,0,0,0,2.782-.291c2.791-.485,2.742-.6,4.141-.76a23.922,23.922,0,0,1,2.969-.146c.356,0,.7.016,1.149.049a26.866,26.866,0,0,1,3.025.542c1.084.21,1.8.34,2.4.437.445.073.663.105.882.129a17.842,17.842,0,0,0,2.564.121c.348,0,.615-.016.744-.024,0,0,.453-.024.906-.065.89-.089,2.281-.356,2.766-.445a19.371,19.371,0,0,1,3.171-.437,13.552,13.552,0,0,1,2.386.154,21.457,21.457,0,0,1,2.507.631,16.978,16.978,0,0,0,3.163.639,14.817,14.817,0,0,0,4.708-.485,17.679,17.679,0,0,1,1.8-.421l.283-.049a22.292,22.292,0,0,1,5.136-.105c.291.032.744.089,1.294.186,1.019.17,1.1.251,1.747.324.558.073.34-.008,1.957.065,0,0,.218.008,1.48-.065a1.06,1.06,0,0,0,.768-.259.828.828,0,0,0,.21-.461.863.863,0,0,0-.623-.882,1.705,1.705,0,0,0-.906-.065,10.3,10.3,0,0,1-1.779.113c-.542-.016-.946-.073-1.221-.105-1.432-.146-2.257-.307-3.049-.413a19.6,19.6,0,0,0-4.255-.154,17.7,17.7,0,0,0-2.855.437c-.963.235-1.149.372-1.99.51a10.455,10.455,0,0,1-2.548.105,19.96,19.96,0,0,1-2.451-.469c-.979-.218-1.359-.324-1.877-.429-.194-.04-.34-.065-.59-.105-.938-.17-1.44-.259-1.949-.315a14.007,14.007,0,0,0-1.86-.065c-.413,0-1.157.016-2.022.105-1.254.138-1.5.315-2.815.55a17.731,17.731,0,0,1-2.782.283,18.672,18.672,0,0,1-3.478-.3c-.922-.146-1.682-.324-2.224-.461,0,0-.485-.121-.971-.235l-.51-.113-.089-.016c-.2-.04-1.1-.226-1.569-.291a8.548,8.548,0,0,0-1.917.024,15.86,15.86,0,0,0-1.755.243c-.4.073-.768.154-1.513.315-1.076.235-1.14.275-1.674.372-.623.121-1.108.178-1.416.218a15.952,15.952,0,0,1-1.7.154,8.855,8.855,0,0,1-1.488-.049,8.4,8.4,0,0,1-1.48-.307c-.445-.129-.429-.17-1.165-.421-.105-.04-.6-.2-1.254-.388-.388-.113-.849-.243-1.456-.372a15.424,15.424,0,0,0-1.828-.3A12.7,12.7,0,0,0,22.8,39.8a15.146,15.146,0,0,0-2.119.307c-.857.162-1.537.315-2.305.493-.534.121-.979.235-1.294.307V38.986a12.182,12.182,0,0,0,1.763-.17c1.5-.259,1.949-.639,3.316-.793a10.4,10.4,0,0,1,2.014-.008,14.808,14.808,0,0,1,1.9.259,16.254,16.254,0,0,1,2.111.566c.178.065.38.138.453.162.6.226.809.356,1.359.542a9.692,9.692,0,0,0,1.3.315,15.413,15.413,0,0,0,5.46-.4c.259-.057.963-.226,1.966-.429.38-.073.647-.129.995-.186a12.255,12.255,0,0,1,2.855-.275,10.387,10.387,0,0,1,1.771.275c.6.121.825.21,1.755.437.073.016.849.21,1.658.38a18.721,18.721,0,0,0,3.5.55,12.865,12.865,0,0,0,1.8-.081c1.868-.2,2.524-.639,4.2-.882a15.451,15.451,0,0,1,2.152-.154h.081a14.87,14.87,0,0,1,1.974.154c.639.081.954.121,1.318.194a12.566,12.566,0,0,1,1.537.429c.963.3,1.561.485,2.127.607a11.98,11.98,0,0,0,3.5.1c.712-.049,1.254-.121,1.957-.218,1.383-.186,1.513-.283,2.621-.413a15,15,0,0,1,2.516-.162,21.921,21.921,0,0,1,2.3.283c1.44.186,2.152.283,2.742.315a18.639,18.639,0,0,0,2.831-.049c.631-.065.469-.081,3.057-.518,1.3-.218,1.747-.283,2.281-.34.833-.089,1.521-.113,1.917-.129a14.573,14.573,0,0,1,1.731,0c.833.1,1.27.307,1.5.057a.691.691,0,0,0,.081-.671c-.1-.259-.324-.372-.6-.518a3.18,3.18,0,0,0-1.2-.324c-.372-.032-.914-.065-1.569-.057a16.517,16.517,0,0,0-2,.154c-1.545.17-2.321.259-2.815.332-1.666.235-1.585.291-2.5.38a16.435,16.435,0,0,1-2.758.065c-.631-.04-1.343-.154-2.774-.38-1.213-.194-1.351-.243-1.909-.283a14.815,14.815,0,0,0-2.216.049c-.857.073-1.48.178-2.232.307-1.553.267-1.682.38-2.807.51a15.178,15.178,0,0,1-1.82.1,8.156,8.156,0,0,1-1.416-.105,9.975,9.975,0,0,1-1.124-.3c-.453-.138-1.416-.429-2.305-.639-.663-.154-1.149-.235-1.812-.332a16.23,16.23,0,0,0-2.055-.251,11.785,11.785,0,0,0-2.216.129c-.777.113-1.254.21-1.836.332a33.829,33.829,0,0,1-3.373.526c-1.974.178-3.68-.218-6.7-.922a12.587,12.587,0,0,0-2.265-.348,15.674,15.674,0,0,0-1.917.024,16.445,16.445,0,0,0-1.755.243c-.639.113-.785.194-1.513.315-.315.057-.607.1-1.189.178-.259.032-.865.113-1.8.226-.914.105-1.375.162-1.707.178a10.508,10.508,0,0,1-1.674,0,10.822,10.822,0,0,1-2.014-.437c-.793-.218-.817-.275-1.788-.55-.477-.138-.89-.251-1.456-.372a15.424,15.424,0,0,0-1.828-.3c-.275-.024-.671-.073-1.205-.081-.089,0-.518,0-1.092.032a9.487,9.487,0,0,0-1.416.162c-.485.1-.453.146-1.335.372a9.127,9.127,0,0,1-1.229.267,5.985,5.985,0,0,1-1.181.024V35.532c.186-.016.5-.049.882-.105,1.593-.251,2.127-.623,3.316-.793a8.793,8.793,0,0,1,2.014-.008,16.931,16.931,0,0,1,2.993.518c1.634.388,1.577.485,2.912.793a15.051,15.051,0,0,0,3.446.542,14.912,14.912,0,0,0,3.381-.4c1.359-.259,1.383-.388,2.815-.639a13,13,0,0,1,2.855-.275,13.232,13.232,0,0,1,2.014.235c.251.049.607.138,1.31.307.21.049.89.218,1.836.461.607.154.906.243,1.658.429.388.1.582.146.607.154a13.492,13.492,0,0,0,2.564.121h0c.793-.024,1.189-.04,1.65-.089a16.715,16.715,0,0,0,1.852-.348c1.254-.275,1.246-.324,1.966-.453a14.65,14.65,0,0,1,1.957-.21,10.955,10.955,0,0,1,1.771.024,16.459,16.459,0,0,1,2.1.4l.493.121c.307.081.437.121.728.2,0,0,.251.065.639.162.623.154,1.278.315,1.836.4a12.029,12.029,0,0,0,2.2,0,19.573,19.573,0,0,0,1.982-.2c.2-.032.38-.073.38-.073.226-.049.307-.073.55-.129.259-.065.453-.105.8-.17.138-.024.291-.057.5-.1.655-.121,1.213-.218,1.335-.243,1.14-.194,1.707-.283,1.949-.315a12.805,12.805,0,0,1,2.993-.024c.663.073.574.121,1.569.267a17.82,17.82,0,0,0,2.532.235,14.308,14.308,0,0,0,2.96-.324c1.116-.2,1.068-.275,2.807-.631a20.652,20.652,0,0,1,2.548-.421,12.016,12.016,0,0,1,2.16-.032,19.573,19.573,0,0,1,2.516.437c1.7.356,2.386.566,2.694.2a.744.744,0,0,0,.129-.6c-.089-.413-.542-.631-.849-.768a12.025,12.025,0,0,0-2.75-.785,16.534,16.534,0,0,0-3.284-.17,19.742,19.742,0,0,0-2.071.235c-.226.032-.461.073-2.232.429-1.416.283-1.513.307-1.949.388a19.782,19.782,0,0,1-2.038.307,14.957,14.957,0,0,1-2.475-.057c-.307-.032-.2-.032-1.246-.186-1.116-.162-1.682-.243-2.079-.267a10.511,10.511,0,0,0-2.095.089,26.293,26.293,0,0,0-2.969.623,31.18,31.18,0,0,1-3.138.639,12.952,12.952,0,0,1-1.513.113c-.251,0-.663.008-1.205-.032a11.536,11.536,0,0,1-1.6-.259c-.445-.105-.526-.146-1.221-.348-.93-.267-1.391-.4-1.99-.51a12.783,12.783,0,0,0-2.055-.2c-.2,0-.89-.032-1.8.032a14.2,14.2,0,0,0-1.7.194c-.825.154-.841.251-2.087.542-.817.186-1.367.283-1.513.3-.679.105-1.205.154-1.432.17a12.441,12.441,0,0,1-1.286.057,9.857,9.857,0,0,1-1.31-.105,19.007,19.007,0,0,1-2.006-.469l-1.949-.518s-.485-.121-.971-.235l-.51-.113-.089-.016c-.2-.04-1.1-.226-1.569-.291a8.548,8.548,0,0,0-1.917.024,16.717,16.717,0,0,0-1.755.243c-.21.04-.461.089-.469.089-.55.113-.946.2-1.043.226-.777.178-1.755.291-2.281.356a17.25,17.25,0,0,1-2.33.178,15.972,15.972,0,0,1-3.51-.566c-1.407-.324-1.407-.4-2.661-.655-1.084-.218-1.893-.315-2.475-.38a12.168,12.168,0,0,0-1.917-.089,9.915,9.915,0,0,0-2.119.307c-.485.129-.574.194-1.173.356a14.362,14.362,0,0,1-1.569.332V31.933a10.656,10.656,0,0,0,1.788-.146c1.48-.243,1.925-.631,3.316-.793a9.869,9.869,0,0,1,2.014-.008,14.734,14.734,0,0,1,2.993.518,12.486,12.486,0,0,1,1.472.469c.6.226.809.356,1.359.542a9.692,9.692,0,0,0,1.3.315,15.413,15.413,0,0,0,5.46-.4c.259-.057.963-.226,1.966-.429.388-.081.655-.129.995-.186a14.365,14.365,0,0,1,2.855-.275,12.18,12.18,0,0,1,2.014.235c.251.049.607.138,1.31.307.21.049.9.218,1.836.461,1.068.275,1.593.413,1.658.429a4.506,4.506,0,0,0,.518.138.245.245,0,0,1,.081.016,16.428,16.428,0,0,0,2.564.121c.793-.024,1.189-.04,1.65-.089a16.713,16.713,0,0,0,1.852-.348c1.254-.275,1.246-.324,1.966-.453a14.651,14.651,0,0,1,1.957-.21,10.956,10.956,0,0,1,1.771.024,16.459,16.459,0,0,1,2.1.4l.493.121c.307.081.437.121.728.2,0,0,.251.065.639.162a17.809,17.809,0,0,0,1.836.4,8.8,8.8,0,0,0,2.2,0,15.067,15.067,0,0,0,1.65-.34c.073-.016.332-.081.833-.21.9-.235,1.278-.356,1.8-.493a18.712,18.712,0,0,1,2.661-.582,8.7,8.7,0,0,1,1.65-.089,7.993,7.993,0,0,1,1.246.154l.882.154.833.113c.324.073.752.17,1.262.243a12.051,12.051,0,0,0,2,.154,11.448,11.448,0,0,0,2.176-.226c.55-.1,1.035-.2,2-.453.275-.073.93-.235,1.658-.372A21.067,21.067,0,0,1,92.8,31.2a28.232,28.232,0,0,1,3.413-.073c.372.016,1.205.049,2.249.178a16.311,16.311,0,0,1,1.852.307c.534.138,1.092.324,1.294.4.267.1.348.129.348.129.138.057.226.1.388.154,0,0,.089.032.178.057.275.081,1.181.332,1.561-.089a.705.705,0,0,0,.121-.736ZM16.887,25.64Q16.838,20.314,16.8,15a5.307,5.307,0,0,1,2.621.024,3.184,3.184,0,0,1,2.127,1.618,2.827,2.827,0,0,1,.324.793c.065.267,0,3.316,0,4.966l-.024.785-.04.235a3.272,3.272,0,0,1-.162.469,2.923,2.923,0,0,1-.793,1.052,3.637,3.637,0,0,1-.76.493s-.057.024-.121.057a10.692,10.692,0,0,1-3.09.146Z" transform="translate(0 -0.06)" fill="#fff"/>
    </g>
  </g>
</svg>
